<svg width="224" height="48" viewBox="0 0 224 48" fill="none" xmlns="http://www.w3.org/2000/svg">
<g opacity="0.88">
<path d="M72.2919 27.6901C71.741 29.3922 70.6911 30.859 69.2979 31.8727C67.9046 32.8863 66.2424 33.3927 64.5583 33.3167C62.2737 33.2706 60.0974 32.2686 58.497 30.5261C56.8966 28.7835 56 26.4396 56 23.9982C56 21.5569 56.8966 19.2129 58.497 17.4704C60.0974 15.7279 62.2737 14.7259 64.5583 14.6798C65.6541 14.673 66.7401 14.9014 67.7517 15.3514C68.7634 15.8014 69.6802 16.4638 70.4478 17.2994C71.2154 18.135 71.8181 19.1268 72.2203 20.2159C72.6224 21.305 72.8158 22.4694 72.789 23.6398C72.7811 24.0637 72.748 24.4866 72.6896 24.9059L72.6242 25.4036H60.1184C60.2363 26.5709 60.7566 27.6494 61.5779 28.4294C62.3991 29.2093 63.4628 29.6349 64.5615 29.6231C65.2466 29.6603 65.9283 29.5006 66.536 29.1607C67.1437 28.8207 67.6551 28.3129 68.0168 27.6901H72.2919ZM68.6721 22.4153C68.5871 21.3124 68.1166 20.2841 67.3544 19.5349C66.5922 18.7857 65.594 18.3704 64.5583 18.3717C63.4845 18.3544 62.4415 18.7553 61.6239 19.4993C60.8064 20.2434 60.2702 21.2798 60.1153 22.4153H68.6721Z" fill="#5F3A9F"/>
<path d="M78.2109 25.2298C78.2109 27.3752 80.1849 29.0975 83.3126 29.0975C86.6033 29.0975 87.9202 27.7269 87.9202 25.9333C87.9202 24.4914 87.0972 23.3316 84.1357 22.7674L80.1866 22.0639C76.2048 21.3604 74.4264 18.8997 74.4264 15.3837C74.4264 11.3052 77.5525 8 82.9831 8C88.9061 8 91.8678 11.4844 91.8678 16.0872H87.5893C87.5893 13.9783 85.9757 12.2195 82.9816 12.2195C79.9875 12.2195 78.7034 13.5917 78.7034 15.3837C78.7034 16.7907 79.3618 17.7399 81.8294 18.2045L85.4494 18.908C90.0896 19.7874 92.1954 21.8615 92.1954 25.9416C92.1954 30.1611 89.234 33.3253 83.3096 33.3253C77.3851 33.3253 73.9297 29.8409 73.9297 25.2381L78.2109 25.2298Z" fill="#5F3A9F"/>
<path d="M104.706 31.2193H104.542C104.212 31.6327 103.824 31.9887 103.391 32.2746C102.305 32.9925 101.048 33.3591 99.771 33.3299C95.9539 33.3299 93.6836 30.841 93.6836 27.8792C93.6836 24.3632 95.9881 21.9059 100.594 21.9059H104.379V21.5541C104.417 21.1203 104.368 20.6828 104.235 20.2709C104.102 19.859 103.888 19.4823 103.608 19.166C103.327 18.8497 102.986 18.6011 102.608 18.4369C102.231 18.2727 101.825 18.1967 101.417 18.214C100.75 18.1551 100.085 18.353 99.5416 18.772C98.9986 19.1909 98.6135 19.8033 98.4558 20.4988H94.3357C94.6975 17.5453 96.9356 14.6914 101.411 14.6914C105.69 14.6914 108.486 17.7162 108.486 21.5475V32.9748H105.029L104.706 31.2193ZM104.377 25.246H100.922C98.7817 25.246 97.7957 26.1254 97.7957 27.5325C97.7957 28.9395 98.7507 29.8189 100.436 29.8189C100.954 29.8816 101.48 29.8216 101.974 29.6432C102.469 29.4647 102.92 29.1721 103.297 28.7862C103.674 28.4003 103.967 27.9305 104.155 27.4102C104.343 26.8898 104.421 26.3316 104.385 25.7753L104.377 25.246Z" fill="#5F3A9F"/>
<path d="M111.286 15.0325H115.071L115.4 16.7913H115.564C115.842 16.3889 116.174 16.0331 116.55 15.736C117.403 15.0468 118.443 14.676 119.512 14.6807C120.782 14.6553 122.023 15.0892 123.034 15.9119C123.446 16.2689 123.812 16.6829 124.121 17.1431H124.286C124.63 16.6809 125.029 16.2673 125.471 15.9119C126.568 15.0872 127.882 14.656 129.223 14.6807C130.077 14.7115 130.918 14.9228 131.695 15.3024C132.473 15.6821 133.173 16.2225 133.755 16.8927C134.336 17.5628 134.787 18.3493 135.082 19.2068C135.378 20.0642 135.511 20.9757 135.475 21.8886V32.9641H131.361V22.2387C131.361 19.9539 130.243 18.7227 128.566 18.7227C128.141 18.7218 127.72 18.8135 127.33 18.9922C126.939 19.1709 126.587 19.4327 126.294 19.7618C126.002 20.0909 125.775 20.4803 125.628 20.9061C125.481 21.332 125.417 21.7854 125.44 22.2387V32.9641H121.324V22.2387C121.324 19.9539 120.206 18.7227 118.529 18.7227C118.104 18.7216 117.684 18.8131 117.293 18.9917C116.902 19.1703 116.549 19.4321 116.257 19.7612C115.964 20.0903 115.737 20.4797 115.59 20.9057C115.443 21.3317 115.379 21.7853 115.401 22.2387V32.9641H111.288L111.286 15.0325Z" fill="#5F3A9F"/>
<path d="M138.271 15.0312H142.385V25.4049C142.385 26.4307 142.766 27.4145 143.445 28.1399C144.124 28.8652 145.045 29.2727 146.005 29.2727C146.965 29.2727 147.885 28.8652 148.564 28.1399C149.243 27.4145 149.624 26.4307 149.624 25.4049V15.0312H153.738V32.9645H149.954L149.624 31.2057H149.46C149.134 31.6107 148.758 31.9659 148.342 32.261C147.299 32.9665 146.087 33.3331 144.854 33.3163C143.944 33.3266 143.043 33.1338 142.207 32.7505C141.371 32.3671 140.619 31.8016 140 31.09C139.38 30.3784 138.907 29.5366 138.609 28.6182C138.312 27.6998 138.197 26.7252 138.272 25.7567L138.271 15.0312Z" fill="#5F3A9F"/>
<path d="M168.717 31.0304H168.552C168.223 31.488 167.822 31.881 167.367 32.1918C166.249 32.9556 164.943 33.3471 163.615 33.3168C159.337 33.3168 155.882 29.625 155.882 23.9984C155.882 18.3718 159.337 14.68 163.615 14.68C164.905 14.6618 166.168 15.0672 167.235 15.8414C167.678 16.1408 168.069 16.5217 168.388 16.9664H168.552V8.35156H172.666V32.965H169.043L168.717 31.0304ZM168.552 23.9984C168.552 20.6218 166.775 18.7236 164.274 18.7236C161.772 18.7236 159.995 20.6218 159.995 23.9984C159.995 27.375 161.772 29.2732 164.274 29.2732C166.775 29.2732 168.552 27.3733 168.552 23.9984Z" fill="#5F3A9F"/>
<path d="M185.987 31.2193H185.823C185.492 31.6328 185.104 31.9888 184.671 32.2746C183.585 32.9927 182.327 33.3593 181.051 33.3299C177.234 33.3299 174.963 30.841 174.963 27.8792C174.963 24.3632 177.266 21.9059 181.874 21.9059H185.658V21.5541C185.697 21.1203 185.647 20.6828 185.514 20.2709C185.381 19.859 185.167 19.4823 184.887 19.166C184.606 18.8497 184.266 18.6011 183.888 18.4369C183.51 18.2727 183.104 18.1967 182.697 18.214C182.029 18.1555 181.364 18.3535 180.821 18.7724C180.278 19.1912 179.893 19.8035 179.735 20.4988H175.621C175.983 17.5453 178.221 14.6914 182.697 14.6914C186.975 14.6914 189.772 17.7162 189.772 21.5475V32.9748H186.317L185.987 31.2193ZM185.658 25.246H182.203C180.066 25.246 179.077 26.1254 179.077 27.5325C179.077 28.9395 180.032 29.8189 181.717 29.8189C182.235 29.8814 182.761 29.8212 183.255 29.6426C183.749 29.464 184.201 29.1714 184.577 28.7855C184.954 28.3996 185.247 27.9299 185.435 27.4097C185.623 26.8895 185.701 26.3315 185.664 25.7753L185.658 25.246Z" fill="#5F3A9F"/>
<path d="M202.776 31.2193H202.612C202.281 31.6328 201.892 31.9888 201.459 32.2746C200.373 32.9927 199.115 33.3593 197.838 33.3299C194.021 33.3299 191.75 30.841 191.75 27.8792C191.75 24.3632 194.053 21.9059 198.661 21.9059H202.445V21.5541C202.483 21.1203 202.434 20.6828 202.301 20.2709C202.168 19.859 201.954 19.4823 201.674 19.166C201.393 18.8497 201.053 18.6011 200.675 18.4369C200.298 18.2727 199.891 18.1967 199.484 18.214C198.816 18.1551 198.151 18.353 197.608 18.772C197.065 19.1909 196.68 19.8033 196.522 20.4988H192.409C192.772 17.5453 195.008 14.6914 199.485 14.6914C203.764 14.6914 206.561 17.7162 206.561 21.5475V32.9748H203.099L202.776 31.2193ZM202.447 25.246H198.992C196.853 25.246 195.864 26.1254 195.864 27.5325C195.864 28.9395 196.819 29.8189 198.504 29.8189C199.023 29.8816 199.548 29.8216 200.043 29.6432C200.537 29.4647 200.989 29.1721 201.366 28.7862C201.743 28.4003 202.035 27.9305 202.223 27.4102C202.411 26.8898 202.49 26.3316 202.453 25.7753L202.447 25.246Z" fill="#5F3A9F"/>
<path d="M208.532 35.9529H211.822C212.646 35.9529 212.91 35.6011 213.073 35.0734L213.369 34.194L206.557 15.0312H210.835L215.113 27.1621H215.772L219.721 15.0312H223.999L216.924 36.4805C216.135 38.9412 215.081 39.9965 211.989 39.9965H208.533L208.532 35.9529Z" fill="#5F3A9F"/>
</g>
<path d="M10.4784 12.0452L5.26172 17.2617L17.2336 29.2325L22.4503 24.016L10.4784 12.0452Z" fill="#FB7452"/>
<path d="M17.2648 5.25897L12.0469 10.4766L17.2648 15.6942L22.4827 10.4766L17.2648 5.25897Z" fill="#DD1D94"/>
<path d="M10.4435 25.5832L5.22559 30.8008L10.4435 36.0184L15.6614 30.8008L10.4435 25.5832Z" fill="#FB7452"/>
<path d="M30.8021 5.22493L18.7959 17.2305L24.0161 22.4504L36.0223 10.4448L30.8021 5.22493Z" fill="#DD1D94"/>
<path d="M23.9867 25.557L11.9805 37.5625L17.1972 42.7789L29.2034 30.7734L23.9867 25.557Z" fill="#E1517D"/>
<path d="M30.7675 18.764L25.5508 23.9805L37.5225 35.9515L42.7392 30.735L30.7675 18.764Z" fill="#5F3A9F"/>
<path d="M37.5568 11.9777L32.3389 17.1953L37.5568 22.4129L42.7747 17.1953L37.5568 11.9777Z" fill="#5F3A9F"/>
<path d="M30.7355 32.3019L25.5176 37.5195L30.7355 42.7371L35.9534 37.5195L30.7355 32.3019Z" fill="#E1517D"/>
<path d="M3.68961 27.7343C5.72733 27.7343 7.37922 26.0825 7.37922 24.0449C7.37922 22.0073 5.72733 20.3555 3.68961 20.3555C1.6519 20.3555 0 22.0073 0 24.0449C0 26.0825 1.6519 27.7343 3.68961 27.7343Z" fill="#FB7452"/>
<path d="M24.049 7.37879C26.0867 7.37879 27.7386 5.727 27.7386 3.6894C27.7386 1.6518 26.0867 0 24.049 0C22.0113 0 20.3594 1.6518 20.3594 3.6894C20.3594 5.727 22.0113 7.37879 24.049 7.37879Z" fill="#DD1D94"/>
<path d="M23.9484 47.9999C25.9861 47.9999 27.638 46.3481 27.638 44.3105C27.638 42.2729 25.9861 40.6211 23.9484 40.6211C21.9107 40.6211 20.2588 42.2729 20.2588 44.3105C20.2588 46.3481 21.9107 47.9999 23.9484 47.9999Z" fill="#E1517D"/>
<path d="M44.3107 27.6327C46.3484 27.6327 48.0003 25.9809 48.0003 23.9433C48.0003 21.9057 46.3484 20.2539 44.3107 20.2539C42.273 20.2539 40.6211 21.9057 40.6211 23.9433C40.6211 25.9809 42.273 27.6327 44.3107 27.6327Z" fill="#5F3A9F"/>
</svg>
